HIERARCHY
ROOT root
{
	OFFSET 0.000000 0.000000 0.000000
	CHANNELS 6 Xposition Yposition Zposition Zrotation Yrotation Xrotation
	JOINT lhip
	{
		OFFSET 0.058581 -0.082280 -0.017664
		CHANNELS 3 Zrotation Yrotation Xrotation
		JOINT lknee
		{
			OFFSET 0.043451 -0.386469 0.008037
			CHANNELS 3 Zrotation Yrotation Xrotation
			JOINT lankle
			{
				OFFSET -0.014790 -0.426874 -0.037428
				CHANNELS 3 Zrotation Yrotation Xrotation
				JOINT ltoe
				{
					OFFSET 0.041054 -0.060286 0.122042
					CHANNELS 3 Zrotation Yrotation Xrotation
					End Site
					{
						OFFSET 0.000000 0.000000 0.000000
					}
				}
			}
		}
	}
	JOINT rhip
	{
		OFFSET -0.060310 -0.090513 -0.013543
		CHANNELS 3 Zrotation Yrotation Xrotation
		JOINT rknee
		{
			OFFSET -0.043257 -0.383688 -0.004843
			CHANNELS 3 Zrotation Yrotation Xrotation
			JOINT rankle
			{
				OFFSET 0.019056 -0.420046 -0.034562
				CHANNELS 3 Zrotation Yrotation Xrotation
				JOINT rtoe
				{
					OFFSET -0.034840 -0.062106 0.130323
					CHANNELS 3 Zrotation Yrotation Xrotation
					End Site
					{
						OFFSET 0.000000 0.000000 0.000000
					}
				}
			}
		}
	}
	JOINT lowerback
	{
		OFFSET 0.004439 0.124404 -0.038385
		CHANNELS 3 Zrotation Yrotation Xrotation
		JOINT upperback
		{
			OFFSET 0.004488 0.137956 0.026820
			CHANNELS 3 Zrotation Yrotation Xrotation
			JOINT chest
			{
				OFFSET -0.002265 0.056032 0.002855
				CHANNELS 3 Zrotation Yrotation Xrotation
				JOINT lowerneck
				{
					OFFSET -0.013390 0.211636 -0.033468
					CHANNELS 3 Zrotation Yrotation Xrotation
					JOINT upperneck
					{
						OFFSET 0.010113 0.088937 0.050410
						CHANNELS 3 Zrotation Yrotation Xrotation
						End Site
						{
							OFFSET 0.000000 0.000000 0.000000
						}
					}
				}
				JOINT lclavicle
				{
					OFFSET 0.071702 0.114000 -0.018898
					CHANNELS 3 Zrotation Yrotation Xrotation
					JOINT lshoulder
					{
						OFFSET 0.122921 0.045205 -0.019046
						CHANNELS 3 Zrotation Yrotation Xrotation
						JOINT lelbow
						{
							OFFSET 0.255332 -0.015649 -0.022946
							CHANNELS 3 Zrotation Yrotation Xrotation
							JOINT lwrist
							{
								OFFSET 0.265709 0.012698 -0.007375
								CHANNELS 3 Zrotation Yrotation Xrotation
								End Site
								{
									OFFSET 0.000000 0.000000 0.000000
								}
							}
						}
					}
				}
				JOINT rclavicle
				{
					OFFSET -0.082954 0.112472 -0.023707
					CHANNELS 3 Zrotation Yrotation Xrotation
					JOINT rshoulder
					{
						OFFSET -0.113228 0.046853 -0.008472
						CHANNELS 3 Zrotation Yrotation Xrotation
						JOINT relbow
						{
							OFFSET -0.260127 -0.014369 -0.031269
							CHANNELS 3 Zrotation Yrotation Xrotation
							JOINT rwrist
							{
								OFFSET -0.269108 0.006794 -0.006027
								CHANNELS 3 Zrotation Yrotation Xrotation
								End Site
								{
									OFFSET 0.000000 0.000000 0.000000
								}
							}
						}
					}
				}
			}
		}
	}
}
MOTION
Frames: 13
Frame Time: 0.033333
0.310816 -0.238358 0.944351 179.165331 -0.053846 89.672183 8.235199 -0.407841 -19.646025 -7.765811 -5.124266 29.656008 -0.065636 2.688620 -16.096449 0.000000 -0.000000 0.000000 -8.735783 -5.816139 -20.428120 -1.121042 -4.459650 30.101741 4.410061 1.824845 -15.303220 0.000000 -0.000000 0.000000 3.302184 1.783564 18.310379 1.825154 -4.201887 7.069788 1.201565 -0.891549 -1.245300 3.412956 14.207852 27.428604 5.365361 11.415570 15.966734 -17.246825 -18.927607 1.020088 -69.733235 -19.490229 26.158982 -10.345562 -41.072954 15.827464 -7.431042 10.083195 -41.068439 12.177324 18.121482 3.250398 69.183261 18.527381 26.493170 6.075983 42.075186 -0.052397 -5.539783 -10.073390 -62.028117 
0.310425 -0.239261 0.944458 179.029262 -0.114083 89.837458 8.207260 -0.555056 -19.780994 -7.669545 -4.670131 29.682885 0.217538 2.528758 -16.318211 0.000000 -0.000000 0.000000 -8.778825 -5.556715 -20.523996 -1.026215 -4.477493 29.881031 4.266297 1.628007 -15.149416 0.000000 -0.000000 0.000000 3.136099 1.953814 18.006369 1.800254 -4.249547 7.181340 1.205144 -0.743239 -1.325935 3.011471 13.642238 26.946889 5.332305 10.835610 16.332341 -17.209647 -19.661968 1.556087 -69.646467 -20.008999 25.652490 -9.842401 -40.537906 14.303290 -7.684008 9.779026 -39.422110 12.675533 18.381892 3.609832 68.802676 18.804654 25.941012 5.922203 41.626876 -1.013293 -5.040199 -9.267804 -60.809041 
0.309969 -0.239387 0.944616 178.880579 -0.167311 90.012028 8.134131 -0.694668 -19.848402 -7.568690 -4.447361 29.572571 0.404129 2.584774 -16.381801 0.000000 -0.000000 0.000000 -8.848287 -5.445677 -20.656364 -0.972602 -4.498793 29.741935 4.204834 1.557847 -15.051720 0.000000 -0.000000 0.000000 2.971655 2.014146 17.831133 1.832614 -4.264054 6.997317 1.217977 -0.746883 -1.313745 2.559281 13.035605 26.726042 5.110929 9.988310 16.491699 -17.201892 -19.789958 1.784728 -69.671899 -20.198229 25.442560 -9.673768 -40.201181 13.760721 -8.011113 9.300159 -38.760250 12.816128 18.511623 3.851280 68.806314 18.980215 25.671247 5.835186 41.320193 -1.394940 -4.540596 -8.790981 -60.409484 
0.309607 -0.239355 0.945059 178.809861 -0.070644 90.002274 8.127425 -0.541524 -19.749554 -7.460256 -4.444753 29.571804 0.445465 2.421542 -16.520067 0.000000 -0.000000 0.000000 -8.730179 -5.437575 -20.415271 -0.880308 -4.480455 29.374057 4.456265 1.701770 -14.897651 0.000000 -0.000000 0.000000 3.100963 1.901878 17.830678 1.770087 -4.357404 7.082809 1.137135 -0.764626 -1.461052 2.022838 12.365978 26.400673 4.817258 9.234893 16.709624 -17.274073 -19.969567 1.919212 -69.560406 -20.335226 25.169547 -9.525340 -39.945525 13.435516 -8.141829 9.236814 -38.070694 13.074238 18.886132 4.083384 68.639111 19.265847 25.392064 5.951665 40.994210 -1.944993 -4.985514 -8.527018 -59.835944 
0.309393 -0.239331 0.945245 178.802121 -0.049678 90.024088 8.112794 -0.519536 -19.777469 -7.444603 -4.474105 29.583371 0.479823 2.458298 -16.453865 0.000000 -0.000000 0.000000 -8.728069 -5.497367 -20.364077 -0.829299 -4.464280 29.217097 4.388166 1.607126 -14.806162 0.000000 -0.000000 0.000000 3.125653 1.844321 17.863547 1.780262 -4.371898 6.949529 1.119713 -0.820886 -1.386644 1.779518 11.961235 26.267697 4.686026 8.989634 16.916269 -17.307528 -19.925188 1.969438 -69.584745 -20.445286 25.198969 -9.539233 -39.865913 13.346926 -7.615765 9.110411 -38.146689 13.043371 18.933048 4.051489 68.636297 19.357084 25.429662 6.026770 40.847513 -2.029318 -4.887413 -8.303546 -59.828410 
0.309352 -0.239282 0.945456 178.727900 0.026271 90.139566 8.209306 -0.386887 -19.867248 -7.434490 -4.395220 29.555994 0.472418 2.356657 -16.363709 0.000000 -0.000000 0.000000 -8.591727 -5.498131 -20.432670 -0.874159 -4.458386 29.063420 4.291452 1.625079 -14.731371 0.000000 -0.000000 0.000000 3.128326 1.796941 17.737335 1.811356 -4.394752 6.969468 1.116912 -0.808132 -1.382567 1.480266 11.562127 26.181917 4.590995 8.552361 16.944970 -17.346086 -19.925061 1.986429 -69.669584 -20.565946 25.200521 -9.423587 -39.591238 13.263487 -7.275575 9.241794 -37.951765 13.091435 19.006393 4.121692 68.574345 19.520043 25.337348 6.109592 40.626249 -1.873235 -4.932257 -8.171353 -59.708446 
0.309287 -0.239399 0.945689 178.678815 0.070117 90.253513 8.307038 -0.395602 -19.951146 -7.437580 -4.238578 29.496859 0.389539 2.268084 -16.273639 0.000000 -0.000000 0.000000 -8.549230 -5.473286 -20.517122 -0.852646 -4.514949 28.965117 4.316047 1.640836 -14.560387 0.000000 -0.000000 0.000000 3.116831 1.806714 17.659049 1.860656 -4.416357 7.139317 1.142275 -0.809193 -1.561947 1.287533 11.166052 26.007472 4.576023 8.191065 17.016545 -17.330359 -20.070454 1.998730 -69.765065 -20.575497 25.092747 -9.189336 -39.403710 13.134654 -7.760854 9.035249 -37.603702 12.922008 19.193320 4.156753 68.686169 19.540067 25.186542 5.835709 40.430353 -2.019263 -4.149310 -7.905688 -59.645887 
0.309030 -0.239325 0.945729 178.630785 0.032698 90.322157 8.247392 -0.354350 -19.992875 -7.379642 -4.135985 29.486896 0.455759 2.151853 -16.273389 0.000000 -0.000000 0.000000 -8.605991 -5.601800 -20.574635 -0.803809 -4.489622 28.930540 4.335689 1.744465 -14.480448 0.000000 -0.000000 0.000000 3.156818 1.847019 17.661257 1.809890 -4.468798 7.146743 1.072171 -0.851034 -1.598798 1.249930 11.071909 25.870789 4.596059 7.995040 17.109024 -17.268735 -20.186279 2.073988 -69.857263 -20.644458 25.092229 -9.036269 -39.398612 12.910591 -7.342204 8.960730 -37.622041 12.916170 19.328201 4.201850 68.738145 19.547973 25.163381 5.581833 40.390776 -2.145740 -3.944131 -7.705489 -59.638714 
0.308989 -0.239404 0.945831 178.650865 0.020353 90.392920 8.246421 -0.374368 -20.025766 -7.380679 -4.078308 29.396121 0.444024 2.120679 -16.189211 0.000000 -0.000000 0.000000 -8.620316 -5.584008 -20.599647 -0.810250 -4.570134 28.839749 4.314927 1.728772 -14.389174 0.000000 -0.000000 0.000000 3.177327 1.834352 17.648289 1.806144 -4.528217 7.170395 1.066026 -0.897806 -1.604813 1.209791 11.021896 25.834854 4.573800 7.829043 17.053430 -17.263062 -20.253357 2.121892 -69.829259 -20.649471 25.085002 -8.879055 -39.499584 12.880821 -7.622705 8.902532 -37.672606 12.917011 19.413565 4.213798 68.739515 19.618803 25.178318 5.522139 40.325084 -2.111682 -4.035334 -7.674685 -59.702069 
0.308893 -0.239407 0.946130 178.582067 0.037088 90.515085 8.226634 -0.288226 -20.033066 -7.293808 -4.063705 29.190866 0.475494 2.149037 -16.104959 0.000000 -0.000000 0.000000 -8.583043 -5.487958 -20.647387 -0.810839 -4.538289 28.646223 4.358528 1.711762 -14.280556 0.000000 -0.000000 0.000000 3.187412 1.892781 17.584505 1.864340 -4.444674 7.053198 1.124379 -0.948362 -1.484105 1.218507 10.798155 26.023076 4.530016 7.720421 16.951613 -17.434372 -20.271165 2.254580 -69.697448 -20.813852 25.118380 -9.047626 -39.527654 12.804313 -7.184759 8.984802 -37.581294 12.926012 19.275721 4.226083 68.574043 19.677515 25.196439 5.707077 40.430598 -1.966847 -4.659349 -7.988672 -59.504904 
0.308972 -0.239516 0.946433 178.666571 0.013429 90.568221 8.183169 -0.234308 -20.040955 -7.289480 -4.137420 29.041642 0.426469 2.054445 -16.034865 0.000000 -0.000000 0.000000 -8.550068 -5.482666 -20.625482 -0.932596 -4.565661 28.513390 4.384453 1.673710 -14.230589 0.000000 -0.000000 0.000000 3.121957 1.889145 17.673888 1.910420 -4.461749 7.070190 1.203381 -0.910317 -1.641628 1.133885 10.710066 26.098460 4.605609 7.755191 17.118594 -17.477598 -20.302817 2.276139 -69.769979 -20.766143 25.122737 -8.876851 -39.524693 12.877059 -7.640803 8.779879 -37.635496 12.930956 19.242649 4.220024 68.498704 19.529724 25.054489 5.788862 40.505968 -1.659194 -3.346445 -7.386498 -59.809826 
0.308902 -0.239534 0.946493 178.648215 -0.082202 90.588707 8.036498 -0.243046 -19.933690 -7.217890 -4.170547 28.806044 0.420026 2.097049 -15.942920 0.000000 -0.000000 0.000000 -8.663695 -5.541181 -20.627351 -0.931876 -4.647884 28.447941 4.426522 1.778813 -14.183568 0.000000 -0.000000 0.000000 3.113260 1.928987 17.713536 1.835637 -4.447518 6.972727 1.195730 -0.953882 -1.497545 1.245975 10.795907 26.106517 4.626462 7.675297 17.051245 -17.421470 -20.357742 2.297916 -69.763075 -20.864676 25.089497 -8.964853 -39.550644 12.579276 -7.327174 8.915431 -37.303708 12.984974 19.202496 4.293086 68.481286 19.672189 25.119634 5.830102 40.720520 -1.977377 -5.069337 -8.118648 -59.399279 
0.308816 -0.239783 0.946572 178.638940 -0.132153 90.679931 7.976249 -0.309989 -19.989094 -7.184480 -4.149774 28.709914 0.465633 2.136104 -15.906896 0.000000 -0.000000 0.000000 -8.727082 -5.643778 -20.688758 -0.867881 -4.658004 28.340465 4.396113 1.842409 -14.145457 0.000000 -0.000000 0.000000 3.105385 2.004620 17.683772 1.836766 -4.458859 6.974927 1.227625 -0.960556 -1.496324 1.283023 10.751554 26.172817 4.627021 7.607355 16.995617 -17.428294 -20.404906 2.318681 -69.815390 -20.837177 25.051069 -8.739596 -39.539802 12.623727 -7.801544 8.845987 -37.127597 12.941560 19.226274 4.347216 68.509944 19.673453 25.080303 5.785845 40.809942 -1.991546 -5.468426 -8.368652 -59.361347 
